<?xml version="1.0" encoding="iso-8859-1"?>
<!-- Generator: Adobe Illustrator 18.0.0, SVG Export Plug-In . SVG Version: 6.00 Build 0)  -->
<!DOCTYPE svg PUBLIC "-//W3C//DTD SVG 1.1//EN" "http://www.w3.org/Graphics/SVG/1.1/DTD/svg11.dtd">
<svg version="1.1" id="Capa_1" xmlns="http://www.w3.org/2000/svg" xmlns:xlink="http://www.w3.org/1999/xlink" x="0px" y="0px"
	 viewBox="0 0 425.586 425.586" style="enable-background:new 0 0 425.586 425.586;" xml:space="preserve">
<path d="M393.79,111.408c-2.299-0.519-56.475-12.686-68.228-11.468c-11.22,1.16-40.548,1.158-54.104-0.005
	c-14.598-1.247-32.605,2.091-38.544,4.063c-2.213,0.61-16.434,0.994-34.812,1.217c-14.868-9.384-40.768-7.675-49.089-6.828
	c-1.069-3.96-2.282-8.915-3.305-14.269c4.229,1.253,8.739,1.767,12.592,1.936c6.866,0.3,12.791-4.822,13.475-11.667
	c1.341-13.439,2.819-38.303-2.357-53.831C165.655,9.268,151.296,0.84,134.499,0.06c-18.213-0.842-32.84,7.16-39.113,21.416
	c-5.111,11.616-4.858,20.498-2.354,27.739c-0.819-0.253-1.625-0.47-2.404-0.63c-6.995-1.465-13.939,1.619-17.689,7.855
	c-5.592,9.291-3.868,23.309,5.127,41.663c6.468,13.199,14.316,23.713,14.647,24.154c0.58,0.773,1.477,1.2,2.401,1.2
	c0.373,0,0.75-0.069,1.113-0.214c1.259-0.503,2.024-1.789,1.866-3.136c-0.043-0.366-4.305-36.76-4.305-50.477
	c0-4.954,1.995-8.563,4.896-9.788c1.392,1.985,2.847,3.847,4.242,5.629c3.28,4.19,6.378,8.149,7.679,12.375
	c3.791,12.321-0.172,28.937-1.36,33.361c-4.648,2.897-8.764,7.239-10.474,13.765c-1.549,5.908,0.381,14.092,5.735,24.322
	c0.012,0.023,0.024,0.045,0.036,0.068c9.65,18.446,27.544,38.007,37.222,46.658c22.113,19.766,29.74,32.874,31.873,37.236
	c-3.828,4.208-13.28,16.557-11.224,34.038c2.189,18.607,19.794,30.313,24.968,33.376c0.784,6.314,3.886,31.46,6.427,54.076
	c-6.339-2.051-18.628-2.383-43.181,2.218c-16.911,3.167-33.449,7.542-39.296,9.139l-2.069-3.449
	c-2.954-4.922-9.163-6.936-14.444-4.688c-0.203,0.086-0.395,0.195-0.574,0.324l-53.227,38.707c0,0-7.612,2.321-7.758,2.392
	c-2.823,1.387-4.292,4.389-3.656,7.469c0.636,3.08,3.174,5.253,6.314,5.409l64.426,3.202c0.063,0.003,61.786-0.656,108.91,8.996
	c2.904,0.582,6.363,1.122,9.994,1.122c5.153,0,10.654-1.087,15.403-4.684c6.98-5.286,10.906-14.785,12.002-29.038
	c2.224-28.917,4.922-83.573-1.946-125.142c0.311-21.304-11.719-58.596-39.343-94.692c0.042-0.113,0.332-0.886,0.435-1.16
	c3.233-8.657,6.172-17.632-3.438-28.963c24.855-2.486,42.545-3.607,52.632-3.333c21.189,0.564,43.548-5.328,59.88-9.632
	c6.077-1.601,11.365-2.995,15.249-3.69c1.077,0.225,6.048,1.074,8.677,1.672c8.839,2.012,27.208,5.738,42.029,5.738
	c3.806,0,7.381-0.246,10.497-0.83c1.153-0.216,2.074-1.084,2.358-2.222c0.284-1.138-0.121-2.337-1.037-3.07
	c-2.834-2.267-5.999-4.986-8.495-7.172c5.429-1.13,9.131-1.989,9.663-2.114c1.362-0.318,2.323-1.535,2.317-2.933
	C396.125,112.925,395.154,111.716,393.79,111.408z M87.788,69.63c0,9.046,1.724,27,3.002,39.065
	C81.715,94.003,70.956,71.37,78.08,59.534c2.02-3.358,5.456-5.301,9.142-5.301c0.723,0,1.457,0.075,2.19,0.228
	c1.373,0.281,2.854,0.758,4.407,1.421C90.962,57.789,87.788,61.695,87.788,69.63z M181.643,105.367
	c-10.037,0.068-20.554,0.1-30.581,0.105c-0.112-0.359-0.235-0.762-0.37-1.206C156.822,103.717,169.995,102.988,181.643,105.367z
	 M116.339,76.082c-1.626-5.287-5.057-9.669-8.688-14.309c-7.716-9.859-15.005-19.171-6.773-37.88
	c5.234-11.896,17.698-18.57,33.342-17.838c14.148,0.657,26.557,7.554,29.505,16.399c4.823,14.469,3.372,38.375,2.078,51.337
	c-0.367,3.678-3.566,6.432-7.24,6.269c-9.231-0.406-16.062-2.626-19.234-6.251c-1.092-1.247-2.987-1.374-4.233-0.282
	c-1.247,1.091-1.373,2.986-0.282,4.233c1.214,1.388,2.678,2.541,4.291,3.515c1.675,10.113,4.183,19.22,5.678,24.195
	c-5.611-0.004-10.994-0.016-15.96-0.036c-0.038-0.001-0.076,0-0.114,0.002c-0.485,0.016-6.156,0.261-12.5,2.48
	C117.829,100.291,119.703,87.016,116.339,76.082z M194.614,362.018c0.512,4.687,0.985,9.154,1.388,13.18
	c-5.976-3.065-13.923-4.449-22.684-4.747l0.711-10.798C189.946,358.309,193.73,360.866,194.614,362.018z M96.916,363.756
	c0.421-0.303,0.901-0.525,1.411-0.62c2.238-0.413,4.58,0.59,5.79,2.604l3.244,5.406c0.698,1.164,2.09,1.714,3.394,1.342
	c0.201-0.057,20.338-5.764,41.013-9.634c6.277-1.175,11.624-2,16.208-2.565l-0.666,10.117c-26.187,0.467-57.023,8.913-64.775,11.155
	l-5.027-5.027c-1.797-1.797-4.078-2.905-6.474-3.261c-3.216-0.478-6.466,0.649-8.935,2.764l-2.516,2.156
	c-6.255,5.358-13.185,9.657-20.672,12.858L96.916,363.756z M103.337,409.46c-1.528,0-2.487,0.008-2.787,0.011l-64.336-3.197
	c-0.151-0.008-0.612-0.031-0.736-0.631c-0.091-0.44,0.107-0.667,0.273-0.783l16.521-5.006c11.475-3.477,22.102-9.301,31.207-17.101
	l3.192-2.735c0.4-0.343,0.872-0.603,1.385-0.724c1.845-0.435,3.823,0.1,5.205,1.482l6.288,6.288c0.784,0.784,1.93,1.071,2.991,0.75
	c11.817-3.581,35.201-9.297,56.246-10.977c-1.907,6.919-4.159,20.819,2.596,35.081C134.721,409.675,111.291,409.46,103.337,409.46z
	 M240.67,391.404c-0.944,12.268-4.188,20.584-9.643,24.715c-4.692,3.555-11.237,4.337-20.583,2.465
	c-13.439-2.752-27.974-4.677-41.939-6.023c-8.835-15.1-4.992-30.911-3.32-36.107c14.083-0.541,26.374,1.138,32.306,7.07
	c0.892,0.893,2.248,1.131,3.393,0.595c1.144-0.536,1.83-1.73,1.715-2.988c-2.337-25.712-9.38-82.133-9.451-82.7
	c-0.122-0.971-0.712-1.823-1.577-2.281c-0.21-0.111-21.057-11.339-23.2-29.557c-0.907-7.71,0.877-14.327,3.243-19.41
	c5.545,1.28,19.698,4.168,34.528,4.168c10.471,0,21.275-1.446,29.614-5.912c2.097,8.326,3.061,15.645,2.946,21.445
	c-0.003,0.185,0.01,0.37,0.04,0.552C245.819,309.943,242.447,368.29,240.67,391.404z M199.872,169.584
	c-0.239,0.638-0.479,1.28-0.717,1.926c-0.356,0.971-0.188,2.057,0.447,2.873c17.524,22.566,28.768,45.971,34.507,65.1
	c-16.727,10.083-48.332,4.592-59.418,2.223c2.366-3.549,4.477-5.544,4.528-5.591c0.873-0.801,1.194-2.04,0.817-3.164
	c-0.21-0.627-5.478-15.664-34.275-41.404c-8.177-7.309-19.053-19.402-27.547-31.487c0.554,0.135,1.113,0.244,1.68,0.325
	c7.769,1.116,14.88-3.129,19.482-6.888c4.024-3.289,8.77-5.356,13.723-5.979c10.132-1.272,25.487-3.13,41.746-4.841
	C205.963,153.342,203.392,160.196,199.872,169.584z M329.709,119.235c-4.204,0.7-9.84,2.186-16.366,3.905
	c-15.982,4.211-37.872,9.987-58.19,9.436c-11.158-0.304-31.201,1.04-59.562,3.991c-0.005,0.001-0.011,0.001-0.017,0.002
	c-16.809,1.754-32.783,3.686-43.224,4.997c-6.074,0.763-11.873,3.282-16.772,7.285c-3.67,3-9.221,6.403-14.829,5.596
	c-3.999-0.576-7.696-3.286-10.992-8.056c-5.717-10.964-5.978-16.87-5.184-19.897c3.622-13.818,23.231-15.005,24.296-15.059
	c16.799,0.064,99.859,0.286,105.906-1.735c5.919-1.964,23.066-4.911,36.169-3.787c13.814,1.184,43.754,1.182,55.234-0.005
	c6.966-0.721,33.865,4.444,52.728,8.41c-16.607,3.307-39.674,7.042-47.978,4.965C330.529,119.183,330.113,119.167,329.709,119.235z
	 M383.363,126.628c-8.198,0.283-18.175-0.906-26.931-2.362c6.999-0.959,14.17-2.224,20.34-3.416
	C378.143,122.08,380.61,124.273,383.363,126.628z"/>
<g>
</g>
<g>
</g>
<g>
</g>
<g>
</g>
<g>
</g>
<g>
</g>
<g>
</g>
<g>
</g>
<g>
</g>
<g>
</g>
<g>
</g>
<g>
</g>
<g>
</g>
<g>
</g>
<g>
</g>
</svg>
