<?xml version="1.0" encoding="iso-8859-1"?>
<!-- Generator: Adobe Illustrator 18.0.0, SVG Export Plug-In . SVG Version: 6.00 Build 0)  -->
<!DOCTYPE svg PUBLIC "-//W3C//DTD SVG 1.1//EN" "http://www.w3.org/Graphics/SVG/1.1/DTD/svg11.dtd">
<svg version="1.1" id="Capa_1" xmlns="http://www.w3.org/2000/svg" xmlns:xlink="http://www.w3.org/1999/xlink" x="0px" y="0px"
	 viewBox="0 0 348.114 348.114" style="enable-background:new 0 0 348.114 348.114;" xml:space="preserve">
<path d="M335.371,107.698c-3.466-3.071-7.423-5.393-11.535-7.074c-0.132-1.779-0.378-3.481-0.741-5.079
	c-1.899-8.345-8.719-14.376-17.378-15.366c-13.273-1.497-28.127,7.779-44.182,27.579c-4.05-6.125-11.132-15.922-21.176-26.508
	c-27.366-28.839-54.65-40.104-72.721-44.476c-28.76-6.958-56.058-7.031-78.938-0.209c-19.583,5.839-35.03,16.644-42.38,29.648
	c-8.306,14.695-3.356,33.468,2.258,46.627c4.241,9.941,10.104,19.436,17.427,28.224l13.919,16.703
	c-8.775,1.422-26.175,4.661-35.334,9.24c-4.966,2.485-8.313,1.481-11.855,0.417c-3.809-1.142-8.551-2.563-13.778,2.009
	c-5.676,4.966-6.13,11.518-5.144,16.298c-2.539,0.45-4.316,1.625-5.475,2.735c-5.013,4.807-4.629,13.747-4.433,16.088l-2.878,15.351
	c-2.096,11.181-0.971,22.673,3.253,33.236l3.019,7.548c1.71,4.273,5.631,7.01,10.236,7.143c0.116,0.003,0.23,0.005,0.345,0.005
	c4.449,0,8.356-2.478,10.252-6.528c2.513-5.37,4.413-9.969,5.646-13.669c1.151-3.454,1.898-7.238,2.62-10.898
	c2.084-10.563,3.798-17.053,10.027-18.091c6.172-1.023,30.649,3.201,52.245,6.933c9.072,1.568,17.892,3.092,25.312,4.226
	c-0.681,12.213-2.672,60.28,7.032,75.901c0.602,0.968,1.539,1.682,2.616,2.055c10.506,3.631,23.669,6.508,32.955,8.297
	c1.92,0.369,3.85,0.553,5.773,0.553c4.329,0,8.611-0.932,12.618-2.768l11.335-5.195c1.985-0.91,3.225-2.842,3.223-5.03
	c-0.001-2.179-1.382-4.126-3.342-5.076l-7.63-3.699c-12.907-6.258-27.103-8.564-41.249-6.718c0.177-1.691,0.411-3.889,0.694-6.465
	c1.479,0.058,3.035,0.09,4.671,0.09c15.417,0,36.877-2.469,47.716-5.12c2.566-0.627,4.338-2.829,4.411-5.479
	c0.073-2.648-1.576-4.943-4.102-5.709c-11.95-3.625-32.454-5.454-40.117-6.037l1.845-34.128c2.234-1.478,4.262-3.173,5.993-5.068
	c5.747-6.292,8.338-14.52,7.496-23.792c-0.085-0.933-0.276-1.973-0.547-3.095l26.326-22.199
	c2.253-1.402,20.014-12.623,33.992-26.328c3.004,3.137,12.156,11.299,28.576,14.469c1.039,7.434,1.776,13.563,2.225,17.527
	c0.454,4.005,3.843,6.937,7.852,6.887c16.569-0.327,70.841-4.161,73.58-39.76C349.106,128.547,344.765,116.022,335.371,107.698z
	 M305.038,86.14c6.089,0.696,10.88,4.91,12.206,10.735c0.125,0.549,0.228,1.121,0.32,1.703c-6.965-1.763-13.89-1.896-19.22-0.83
	c-13.386,2.677-23.597,11.891-26.677,14.941h-6.401C275.995,99.234,291.095,84.569,305.038,86.14z M166.227,42.606
	c33.279,8.051,58.492,29.944,74.403,47.937c-0.523-0.217-1.057-0.434-1.61-0.649c-8.98-3.489-20.661,4.308-35.714,23.84
	c-9.607,12.467-17.23,25.44-18.726,28.027l-1.845,1.614c-15.004-8.71-17.8-28.858-17.827-29.064
	c-0.191-1.501-1.469-2.621-2.975-2.621c-0.022,0-0.044,0-0.067,0.001l-33.487,0.736c-3.727-5.364-7.068-10.08-9.729-13.801
	c4.173-10.006,4.886-23.682,2.105-40.703c-1.403-8.586-3.364-15.888-4.602-20.056C131.102,36.866,147.963,38.188,166.227,42.606z
	 M143.971,118.085l20.927,14.671c0,0,0,0,0.001,0c1.188,2.201,2.602,4.426,4.284,6.564l-13.464,14.631
	c-7.431-12.146-15.833-24.79-23.258-35.614L143.971,118.085z M154.105,117.862l5.326-0.117c0.261,1.242,0.649,2.851,1.207,4.697
	L154.105,117.862z M158.947,159.304l14.306-15.546c1.441,1.345,3.022,2.607,4.758,3.749l-17.168,15.017
	C160.223,161.459,159.589,160.385,158.947,159.304z M22.908,173.948c2.627-2.297,4.283-1.924,8.103-0.777
	c3.869,1.161,9.168,2.75,16.263-0.797c9.792-4.896,31.099-8.328,37.133-9.228l11.339,13.607c-8.894-0.45-25.51,0.415-51.573,8.034
	c-11.816,2.726-13.061,2.872-24.086,1.198C19.266,183.465,18.256,178.018,22.908,173.948z M45.439,212.731
	c-10.775,1.796-12.981,12.98-14.928,22.848c-0.686,3.477-1.395,7.07-2.425,10.163c-1.16,3.48-2.973,7.861-5.387,13.022
	c-0.929,1.984-2.791,3.142-4.991,3.068c-2.209-0.063-4.017-1.324-4.837-3.373l-3.019-7.548c-3.801-9.503-4.814-19.844-2.927-29.902
	l2.956-15.767c0.055-0.291,0.065-0.589,0.033-0.884c-0.237-2.132-0.271-8.831,2.578-11.563c1.154-1.107,2.783-1.48,4.985-1.142
	c13.509,2.08,14.823,2.03,28.131-1.042c0.056-0.013,0.112-0.027,0.168-0.044c20.083-5.878,34.286-7.585,43.41-7.847
	c-1.284,6.858-3.046,21.721,2.125,35.507C67.495,214.161,51.434,211.725,45.439,212.731z M185.946,300.243l5.361,2.599
	c0.635,0.308,0.625,1.215-0.016,1.509l-8.813,4.039c-4.624,2.119-9.789,2.734-14.784,1.772c-9.001-1.734-21.686-4.502-31.795-7.965
	c-7.511-12.681-6.987-53.08-5.96-71.528c4.7,0.636,8.51,1.02,10.993,1.02c2.568,0,5.138-0.267,7.651-0.769
	c-4.251,26.454-7.601,60.117-7.637,60.474c-0.092,0.933,0.256,1.854,0.943,2.492c0.687,0.639,1.633,0.919,2.555,0.759l0.799-0.138
	C159.077,292.112,173.313,294.118,185.946,300.243z M157.245,265.184c0.267,0.016,25.865,1.654,40.181,5.56
	c0.217,0.059,0.208,0.373-0.012,0.422c-11.95,2.651-34.721,4.998-48.737,4.518c1.472-12.93,3.737-31.304,6.286-46.602
	c0.43-0.163,0.86-0.325,1.282-0.502l-1.808,33.447C154.348,263.672,155.601,265.081,157.245,265.184z M163.994,216.164
	c-6.414,7.023-16.118,9.525-23.062,9.525c-6.399,0-23.323-2.925-41.24-6.02c-0.452-0.078-0.896-0.155-1.344-0.232
	c-6.676-13.828-4.255-30.62-3.045-36.674c3.15,0.15,5.16,0.469,6.114,0.658l12.699,12.758c0.586,0.589,1.356,0.884,2.126,0.884
	c0.765,0,1.531-0.291,2.116-0.874c1.174-1.169,1.179-3.068,0.01-4.242l-13.215-13.278l-34.539-41.447
	c-6.949-8.338-12.507-17.333-16.518-26.735c-5.083-11.917-9.653-28.758-2.553-41.32c8.57-15.163,29.507-27.455,58.503-30.743
	c2.458,8.068,9.9,35.412,4.341,54.284c-1.096-1.511-1.808-2.48-2.038-2.794c-0.981-1.335-2.859-1.623-4.194-0.641
	c-1.335,0.98-1.622,2.858-0.641,4.193c16.829,22.898,60.851,86.13,62.43,103.495C170.641,204.618,168.639,211.078,163.994,216.164z
	 M198.357,166.136c-0.126,0.078-0.246,0.165-0.359,0.26l-24.627,20.766c-2.14-5.483-5.471-12.12-9.495-19.321l25.031-21.894
	c0.252-0.221,0.466-0.482,0.632-0.774c0.081-0.144,8.294-14.518,18.552-27.82c12.459-16.157,22.936-24.121,28.753-21.867
	c7.845,3.051,11.902,6.04,13.157,9.691c1.483,4.317-0.566,10.786-6.646,20.976C231.94,145.285,198.692,165.93,198.357,166.136z
	 M341.941,143.459c-0.988,12.846-10.532,22.333-28.368,28.2c-14.758,4.855-30.987,5.857-39.347,6.022
	c-0.914,0.028-1.669-0.656-1.772-1.564c-0.496-4.379-1.341-11.379-2.552-19.852c-0.186-1.303-1.199-2.332-2.498-2.539
	c-16.388-2.609-25.252-10.848-27.525-13.242c3.38-3.679,6.372-7.474,8.63-11.258c4.567-7.653,7.085-13.583,7.762-18.492
	c2.607,3.891,3.977,6.299,4.042,6.417c0.53,0.949,1.533,1.538,2.62,1.538h10c0.841,0,1.643-0.353,2.211-0.973
	c0.104-0.113,10.499-11.31,24.377-14.086c7.286-1.457,21.786-0.38,31.871,8.557C339.439,119.32,342.989,129.84,341.941,143.459z"/>
<g>
</g>
<g>
</g>
<g>
</g>
<g>
</g>
<g>
</g>
<g>
</g>
<g>
</g>
<g>
</g>
<g>
</g>
<g>
</g>
<g>
</g>
<g>
</g>
<g>
</g>
<g>
</g>
<g>
</g>
</svg>
