<?xml version="1.0" encoding="iso-8859-1"?>
<!-- Generator: Adobe Illustrator 18.0.0, SVG Export Plug-In . SVG Version: 6.00 Build 0)  -->
<!DOCTYPE svg PUBLIC "-//W3C//DTD SVG 1.1//EN" "http://www.w3.org/Graphics/SVG/1.1/DTD/svg11.dtd">
<svg version="1.1" id="Capa_1" xmlns="http://www.w3.org/2000/svg" xmlns:xlink="http://www.w3.org/1999/xlink" x="0px" y="0px"
	 viewBox="0 0 344.58 344.58" style="enable-background:new 0 0 344.58 344.58;" xml:space="preserve">
<path d="M285.762,299.402c4.277-5.632,5.516-11.329,3.67-16.957c-7.467-22.761-66.271-36.747-97.862-44.262
	c-4.881-1.161-8.96-2.131-11.869-2.907c0.275-20.313,4.187-36.185,7.07-47.885c1.963-7.964,3.444-13.973,3.098-18.558
	c4.803-4.766,7.138-10.239,6.943-16.293c-0.461-14.384-15.362-26.815-17.123-28.235l-40.107-40.107l-2.286-26.67
	c-0.321-3.75,0.976-7.47,3.56-10.206l7.485-7.926c3.705-3.922,3.559-10.149-0.326-13.88c-5.918-5.686-17.94-16.057-31.969-21.637
	c-17.17-6.831-32.849-4.61-45.345,6.416c-14.78,13.041-20.652,27.961-16.533,42.011c3.056,10.425,11.202,19.225,22.684,25.145
	c-2.642,4.821-6.921,14.977-6.921,30.219c0,21.393,11.988,41.481,12.498,42.326c0.549,0.908,1.529,1.448,2.567,1.448
	c0.159,0,0.32-0.013,0.481-0.039c1.209-0.196,2.177-1.106,2.446-2.302c0.275-1.223,6.742-30.113,5.892-43.291
	c-0.529-8.2-3.993-17.78-6.677-24.13c3.249,1.041,6.669,1.889,10.237,2.52c1.982,5.177,1.397,9.698,0.843,12.079
	c-0.239,1.028-0.682,2.923-0.922,4.473c-1.227,7.935-4.61,31.562-4.61,50.789c0,18.776,3.863,41.128,5.525,49.866
	c0.302,1.593,0.416,3.217,0.339,4.828c-0.658,13.65-3.79,82.865-0.81,104.946c0.103,0.765,0.143,1.537,0.133,2.308
	c-8.617,2.851-18.487,9.738-25.495,15.245c-2.054,1.621-2.827,4.264-1.97,6.732c0.859,2.474,3.107,4.072,5.729,4.072h9.598
	l11.113-0.176c1.244,1.498,2.804,2.759,4.644,3.644c2.213,1.064,4.567,1.569,6.896,1.569c4.631,0,9.153-2.007,12.243-5.6
	l146.447-2.347c10.082-0.161,19.209-6.466,22.713-15.688c1.071-2.821,1.708-5.929,1.892-9.236
	C291.898,307.822,289.538,303.606,285.762,299.402z M83.79,139.499c-3.397-7.452-7.86-19.573-7.86-31.828
	c0-11.813,2.832-20.258,5.062-25.073c2.565,5.875,6.323,15.667,6.835,23.603C88.355,114.38,85.672,129.905,83.79,139.499z
	 M190.181,244.02c26.072,6.202,87.129,20.725,93.549,40.296c1.143,3.485,0.4,7.038-2.269,10.812
	c-11.363-10.229-29.049-19.692-36.239-23.336c-25.415-12.881-52.256-21.903-74.031-25.065c3.287-2.18,5.413-4.284,6.652-5.74
	C180.874,241.805,185.087,242.809,190.181,244.02z M175.83,128.901c0.146,0.115,14.594,11.631,14.985,23.832
	c0.152,4.738-1.851,8.904-6.123,12.736c-0.79,0.709-1.146,1.781-0.938,2.821c0.692,3.461-0.853,9.729-2.809,17.665
	c-3.019,12.25-7.129,28.972-7.249,50.636c-1.168,1.519-5.117,5.891-13.961,9.244c-9.117,3.444-20.54,4.805-33.987,4.056
	c0.618-13.047,0.7-24.935-0.393-31.723c-0.289-1.801-0.185-3.523,0.31-5.121c3.688-11.894,9.915-37.586,13.215-59.212
	c1.286-1.21,3.73-3.76,6.03-7.554c4.704-7.76,5.71-17.092,2.829-25.751c6.826,3.605,12.308,5.4,16.525,5.4
	c1.812,0,3.392-0.33,4.746-0.987c0.674-0.328,1.238-0.71,1.712-1.118l4.842,4.842C175.648,128.75,175.736,128.829,175.83,128.901z
	 M210.004,292.763c1.292,8.109,5.207,28.192,13.471,38.566l-99.013,1.587l1.295-2.237c1.431-2.471,1.602-5.508,0.457-8.123
	l-5.459-12.478c0.064-0.575,0.157-1.423,0.272-2.494l3.011-3.055c2.682-2.721,7.022-2.866,9.88-0.329l4.785,4.246
	c0.796,0.707,1.909,0.941,2.919,0.608C161.125,302.714,189.143,295.339,210.004,292.763z M59.925,50.619
	c-3.427-11.688,1.81-24.411,14.745-35.825c25.172-22.21,56.753,3.108,69.176,15.038c1.523,1.463,1.581,3.91,0.131,5.445
	l-7.485,7.926c-3.756,3.977-5.643,9.385-5.176,14.837l2.38,27.761c0.06,0.704,0.368,1.365,0.867,1.864l31.858,31.858
	c0,0,0,0.002,0,0.005c-1.256,0.637-6.853,1.944-24.555-9.419c-3.51-4.092-8.058-7.208-13.287-8.964
	c-10.523-3.535-19.914-0.509-25.631,2.382c0.024-0.159,0.047-0.314,0.069-0.466c0.27-1.807,0.69-3.578,1.155-5.345
	c0.757-2.879,1.263-8.419-1.65-17.145c-0.354-1.059-1.279-1.822-2.383-1.992C79.772,75.446,63.986,64.47,59.925,50.619z
	 M85.686,333.543h-9.55l-0.046-0.091c5.649-4.439,13.219-9.816,20.131-12.888c-0.706,1.819-1.384,3.702-2.001,5.659
	c-0.754,2.391-0.813,4.864-0.294,7.189L85.686,333.543z M104.091,337.602c-3.548-1.706-5.332-5.822-4.149-9.575
	c0.707-2.245,1.485-4.413,2.31-6.443c1.447-3.558,1.942-7.431,1.433-11.201c-2.911-21.564,0.203-90.295,0.856-103.854
	c0.1-2.083-0.047-4.181-0.438-6.237c-1.271-6.688-5.419-29.968-5.419-48.746c0-13.515,1.774-29.642,3.2-40.427
	c3.03-2.092,13.226-8.162,24.785-4.285c7.024,2.358,12.54,7.774,15.133,14.857c2.484,6.784,1.964,14.137-1.395,20.376
	c0.759-7.426,0.943-13.771,0.236-18.015c-0.272-1.635-1.813-2.737-3.452-2.466c-1.634,0.272-2.738,1.817-2.466,3.452
	c2.713,16.279-9.286,68.479-14.791,86.232c-0.772,2.488-0.941,5.13-0.503,7.852c3.225,20.042-4.648,90.378-4.728,91.087
	c-0.059,0.524,0.021,1.055,0.232,1.538l5.781,13.214c0.382,0.874,0.325,1.888-0.152,2.713l-3.419,5.906
	C114.529,338.097,108.794,339.867,104.091,337.602z M284.181,318.814c-2.64,6.947-9.552,11.696-17.2,11.818l-34.675,0.556
	c-8.084-3.772-14.004-24.568-16.329-39.042c9.916-0.806,17.534-0.191,20.714,2.64c1.237,1.102,3.135,0.991,4.235-0.247
	c1.102-1.237,0.991-3.134-0.246-4.235c-7.077-6.3-25.81-5.926-57.268,1.14c-18.865,4.238-36.63,9.692-42.001,11.384l-3.509-3.114
	c-4.522-4.013-11.062-4.36-15.935-1.182c1.08-10.808,2.575-27.121,3.469-42.669c2.474,0.137,4.91,0.23,7.26,0.23
	c10.903,0,20.441-1.483,28.484-4.409c22.055,1.453,53.139,11.173,81.331,25.461c28.787,14.59,43.513,28.265,43.181,34.232
	C285.541,314.067,285.033,316.57,284.181,318.814z"/>
<g>
</g>
<g>
</g>
<g>
</g>
<g>
</g>
<g>
</g>
<g>
</g>
<g>
</g>
<g>
</g>
<g>
</g>
<g>
</g>
<g>
</g>
<g>
</g>
<g>
</g>
<g>
</g>
<g>
</g>
</svg>
