<?xml version="1.0" encoding="iso-8859-1"?>
<!-- Generator: Adobe Illustrator 18.0.0, SVG Export Plug-In . SVG Version: 6.00 Build 0)  -->
<!DOCTYPE svg PUBLIC "-//W3C//DTD SVG 1.1//EN" "http://www.w3.org/Graphics/SVG/1.1/DTD/svg11.dtd">
<svg version="1.1" id="Capa_1" xmlns="http://www.w3.org/2000/svg" xmlns:xlink="http://www.w3.org/1999/xlink" x="0px" y="0px"
	 viewBox="0 0 452.571 452.571" style="enable-background:new 0 0 452.571 452.571;" xml:space="preserve">
<path d="M451.952,264.221l-1.634-9.228l0.136-5.383c0.077-3.115-1.999-5.73-5.05-6.36c-3.041-0.623-5.98,0.948-7.14,3.826
	c-0.559,1.377-1.099,2.682-1.634,3.952l-5.938-0.688c-4.627-0.533-9.361,0.503-13.339,2.924l-9.951,6.057
	c-2.511,1.527-5.458,1.977-8.303,1.262c-20.034-5.031-68.248-16.7-88.943-17.924c-4.308-3.979-26.496-25.372-44.819-59.594
	c5.189-3.797,9.391-7.851,11.627-10.146l13.103,8.246c2.89,1.822,6.426,2.314,9.705,1.349c3.278-0.966,5.984-3.297,7.423-6.395
	l11.371-24.482c7.652-16.506,6.665-35.277-2.642-50.212c-9.193-14.766-23.581-21.281-41.607-18.864
	c-16.345,2.202-28.333,10.667-35.178,24.666c-1.762-1.426-3.527-2.634-5.251-3.565c-7.434-4.057-16.369-2.934-22.763,2.862
	c-10.271,9.301-11.392,26.843-9.467,43.466c-32.337,5.882-91.107,22.972-128.911,71.761c-2.037,2.621-4.002,5.324-5.836,8.028
	c-30.13,44.298-17.4,77.094-5.248,94.273c-1.648,0.972-3.146,2.244-4.389,3.815l-1.749,2.207c-2.788,3.523-6.955,5.758-11.433,6.131
	l-2.16,0.18c-4.798,0.399-9.4,1.722-13.681,3.929L4.413,352.607c-3.284,1.693-4.987,5.262-4.237,8.879
	c0.751,3.618,3.733,6.216,7.422,6.464c13.47,0.905,47.995,2.474,77.683-2.47c31.083-5.178,52.363-2.488,81.818,1.232
	c3.666,0.463,7.458,0.942,11.412,1.424c10.77,1.314,22.229,2.366,33.239,2.366c22.821,0,43.699-4.523,52.419-20.622
	c2.838-5.239,3.541-10.66,2.148-16.127c12.701,2.081,47.017,7.088,83.087,7.088c11.299,0,22.773-0.492,33.805-1.719
	c20.441-2.273,36.622-3.365,48.098-3.252c0.06,0,0.117,0.001,0.176,0.001c9.281-0.001,17.006-7.464,17.257-16.724l0.78-31.688
	l1.264-4.173C452.667,277.154,453.072,270.561,451.952,264.221z M443.828,249.324c0.059-0.146,0.104-0.251,0.363-0.197
	c0.271,0.057,0.269,0.186,0.265,0.334l-0.063,2.468l-1.56-0.181C443.16,250.958,443.49,250.157,443.828,249.324z M410.522,264.447
	l9.951-6.057c2.842-1.728,6.221-2.476,9.53-2.088l14.755,1.708l1.285,7.257c0.955,5.406,0.611,11.028-0.999,16.268l-0.758,2.502
	c-5.662,0.249-21.779,0.756-34.741-0.78c-4.43-0.522-8.795-0.355-12.973,0.497c-16.182,3.31-53.15-0.233-73.739-2.64
	c-7.491-0.887-14.507-3.266-20.849-7.071c-9.166-5.504-12.087-6.514-13.487-6.793c-22.511-4.497-70.243-36.265-89.721-49.714
	c-9.621-6.645-15.707-17.304-16.278-28.513c-0.492-9.462,2.761-15.673,9.948-18.988c4.529-2.092,8.639-2.949,12.259-2.584
	c2.79,12.299,6.144,21.612,6.499,22.584c0.436,1.19,1.566,1.97,2.815,1.97c0.088,0,0.176-0.004,0.264-0.012
	c1.351-0.118,2.454-1.128,2.692-2.463c0.023-0.129,0.708-3.967,1.786-9.737c0.687,0.995,3.436,4.915,7.557,10.061
	c6.666,8.325,16.833,19.693,27.416,26.572c5.575,3.623,10.775,7.572,15.804,11.392c11.026,8.374,21.442,16.283,35.043,20.607
	c0.333,0.104,0.678,0.145,1.029,0.139c1.004-0.04,2.066-0.032,3.18,0.025c20.083,0.869,73.082,13.854,88.848,17.813
	C401.99,267.494,406.686,266.782,410.522,264.447z M263.759,327.236c-3.364-6.006-11.558-15.532-33.308-27.133
	c-24.107-13.366-46.029-23-65.229-29.951c10.888-0.397,27.037,2.889,47.031,9.673c6.146,2.084,12.798,3.662,19.764,4.689
	c5.604,0.837,18.95,3.651,50.713,12.314c15.506,4.22,30.855,7.158,45.678,8.776c0.465,5.401,1.204,19.02-1.976,28.61
	C295.828,332.596,270.101,328.346,263.759,327.236z M331.444,299.905c-15.243-1.519-31.103-4.501-47.137-8.865
	c-25.727-7.016-43.022-11.207-51.41-12.459c-6.614-0.975-12.912-2.469-18.717-4.436c-19.318-6.556-44.655-13.074-58.969-8.393
	l12.345-11.323c5.037,3.659,11.663,7.079,18.851,7.079c2.795,0,5.677-0.518,8.58-1.74c13.474-5.673,19.987-17.021,22.455-22.509
	c23.885,15.477,52.939,32.492,69.879,35.875c0.374,0.075,2.69,0.719,11.576,6.055c7.075,4.245,14.892,6.898,23.236,7.886
	c14.722,1.72,37.703,4.002,55.969,4.001c7.729,0,14.616-0.408,19.672-1.441c3.55-0.727,7.273-0.865,11.066-0.417
	c1.346,0.159,2.721,0.296,4.108,0.415C400.049,297.496,369.845,303.717,331.444,299.905z M232.845,144.343l-5.431,2.416
	c-0.446,0.024-1.149,0.066-2.073,0.132c1.571-7.196,3.14-13.763,4.479-18.201c1.133-3.753,2.714-6.443,4.719-8.063
	C232.251,130.878,232.538,140.199,232.845,144.343z M227.408,181.481c-0.069-0.092-0.138-0.183-0.206-0.273
	c-1.685-2.24-3.22-4.587-4.507-7.077c-0.533-1.031-1.253-2.263-2.184-3.545c0.501-2.597,1.037-5.336,1.596-8.137
	C227.464,166.839,229.21,173.126,227.408,181.481z M260.322,186.413c13.63,25.333,29.002,43.485,38.257,53.227
	c-9.133-4.247-17.093-10.282-25.411-16.599c-5.114-3.885-10.403-7.901-16.163-11.645c-4.875-3.168-9.695-7.407-14.098-11.846
	l7.122-8.482C253.294,190.137,256.744,188.57,260.322,186.413z M275.12,88.508c15.733-2.116,27.749,3.297,35.714,16.09
	c8.232,13.211,9.089,29.853,2.292,44.514l-11.37,24.48c-0.713,1.534-2.053,2.688-3.678,3.167c-1.647,0.486-3.355,0.247-4.81-0.67
	l-26.2-16.384c-1.409-0.874-3.258-0.438-4.13,0.97c-0.873,1.408-0.439,3.257,0.97,4.13l7.834,4.856
	c-2.574,2.557-6.917,6.568-11.972,9.993c-4.365,2.957-8.454,4.926-12.155,5.852c-0.614,0.153-1.163,0.497-1.57,0.981l-7.294,8.687
	c-2.461-2.694-4.728-5.355-6.718-7.799c5.579-17.32-1.087-26.543-8.614-31.388c0.205-0.993,0.411-1.986,0.618-2.975
	c7.257-0.737,13.22-4.063,13.22-4.063c1.212-0.539,1.926-1.81,1.756-3.126c-0.018-0.13-1.641-13.188,2.111-26.848
	C246.022,101.137,257.46,90.886,275.12,88.508z M215.156,110.971c2.696-2.443,6.028-3.706,9.382-3.706
	c2.213,0,4.436,0.55,6.491,1.672c1.657,0.894,3.379,2.101,5.116,3.587c0.192,0.164,0.402,0.29,0.618,0.397
	c-0.025,0.069-0.053,0.135-0.077,0.205c-3.983,0.865-9.616,3.912-12.609,13.829c-3.406,11.288-8.1,35.141-10.821,49.624
	c-1.624-5.75-3.463-13.161-4.746-21.01C206.003,140.239,205.123,120.056,215.156,110.971z M202.479,155.939
	c0.291,1.841,0.61,3.657,0.951,5.433c-4.187-0.066-8.705,1.001-13.499,3.216c-9.4,4.336-14.043,12.893-13.426,24.745
	c0.666,13.054,7.717,25.442,18.86,33.141c4.954,3.421,10.731,7.34,16.971,11.449c-1.736,4.096-7.398,15.144-19.679,20.315
	c-14.437,6.079-29.786-12.153-29.939-12.338c-1.055-1.275-2.943-1.454-4.222-0.399c-1.277,1.055-1.457,2.946-0.401,4.224
	c0.221,0.267,1.952,2.327,4.758,4.874l-14.98,13.74c-12.976-3.99-24.34-6.67-33.866-8.468l-40.344-25.263
	c1.238-1.743,2.506-3.479,3.825-5.176C113.977,178.34,170.946,161.709,202.479,155.939z M167.849,360.759
	c-29.959-3.783-51.606-6.519-83.556-1.197c-29.062,4.839-63.036,3.291-76.294,2.401c-1.503-0.101-1.872-1.324-1.949-1.696
	c-0.077-0.372-0.225-1.639,1.112-2.328l23.842-12.293c3.576-1.844,7.421-2.947,11.429-3.282l2.16-0.18
	c6.125-0.51,11.825-3.566,15.639-8.385l1.749-2.207c2.948-3.724,8.147-4.84,12.447-2.612l13.06,6.266
	c4.29,2.058,9.045,2.796,13.757,2.143c12.653-1.764,36.588-5.494,54.712-10.673l0.834-0.238c2.975-0.85,6.049-1.728,9.163-2.595
	c0.12,3.382,0.551,8.546,1.914,14.376c2.254,9.644,6.318,17.774,11.918,23.988c-0.182-0.022-0.366-0.043-0.548-0.065
	C175.291,361.7,171.507,361.222,167.849,360.759z M258.893,347.023c-9.937,18.347-40.375,19.063-68.905,16.335
	c-16.281-11.576-17.957-34.074-18.065-41.103c18.255-4.856,36.632-8.468,43.841-3.057c1.324,0.993,3.206,0.727,4.2-0.601
	c0.994-1.325,0.725-3.206-0.601-4.2c-11.622-8.715-38.361-1.077-64.222,6.312l-0.834,0.238
	c-17.773,5.078-41.394,8.758-53.892,10.499c-3.535,0.495-7.111-0.063-10.333-1.609l-12.977-6.224
	c-3.016-1.563-6.344-2.066-9.527-1.623c-24.47-32.745-9.717-67.228,2.697-86.424l28.635,17.931
	c-11.325-1.399-17.824-1.271-18.61-1.252c-1.655,0.049-2.957,1.43-2.91,3.085c0.047,1.655,1.435,2.958,3.084,2.913
	c0.146-0.01,15.079-0.347,40.551,5.27c23.518,5.184,61.086,16.65,106.557,41.862c7.065,3.768,28.564,15.235,32.743,29.127
	C261.612,338.774,261.142,342.87,258.893,347.023z M431.482,329.872c-0.038,0-0.077,0-0.115-0.001
	c-11.715-0.128-28.143,0.987-48.822,3.289c-16.329,1.815-33.655,1.989-49.922,1.342c2.804-9.903,2.334-22.252,1.862-28.309
	c7.082,0.602,13.819,0.895,20.149,0.895c29.962-0.001,51.253-6.111,61.467-12.349c1.755-1.076,3.563-2.619,5.385-4.587
	c8.999,0.346,17.487,0.113,21.967-0.07l-0.712,28.911C442.578,325.015,437.539,329.872,431.482,329.872z"/>
<g>
</g>
<g>
</g>
<g>
</g>
<g>
</g>
<g>
</g>
<g>
</g>
<g>
</g>
<g>
</g>
<g>
</g>
<g>
</g>
<g>
</g>
<g>
</g>
<g>
</g>
<g>
</g>
<g>
</g>
</svg>
