<?xml version="1.0" encoding="iso-8859-1"?>
<!-- Generator: Adobe Illustrator 18.0.0, SVG Export Plug-In . SVG Version: 6.00 Build 0)  -->
<!DOCTYPE svg PUBLIC "-//W3C//DTD SVG 1.1//EN" "http://www.w3.org/Graphics/SVG/1.1/DTD/svg11.dtd">
<svg version="1.1" id="Capa_1" xmlns="http://www.w3.org/2000/svg" xmlns:xlink="http://www.w3.org/1999/xlink" x="0px" y="0px"
	 viewBox="0 0 446.131 446.131" style="enable-background:new 0 0 446.131 446.131;" xml:space="preserve">
<path d="M382.918,172.822l-4.207-13.677l-4.171-25.86c-0.641-3.969-2.784-7.457-6.035-9.821l-6.657-4.842l-8.363-10.035
	c-1.719-2.064-4.597-2.665-6.998-1.465l-6.133,3.066c-5.765,2.883-12.393,3.651-18.665,2.162l-37.744-8.956
	c-6.921-1.642-14.036-2.181-21.151-1.603c-11.418,0.928-20.092,0.962-24.423,0.096c-3.02-0.604-7.792-2.55-13.318-4.803
	c-11.459-4.671-27.085-11.04-41.54-11.251c-3.443-1.782-6.513-3.881-8.279-5.162l0.846-2.96l9.438-0.496
	c6.536-0.345,12.292-4.751,14.323-10.965l0.386-1.171c3.229-9.758,7.247-21.901-5.76-48.913c-4.429-9.196-16.26-15.84-28.772-16.156
	c-12.019-0.285-22.047,5.304-27.544,15.382c-1.395,2.558-2.306,5.407-2.823,8.402c-2.271-1.187-5.19-2.445-8.327-3.098
	c-1.126-0.233-2.273-0.352-3.413-0.352c-5.92,0-11.318,3.097-14.438,8.283c-9.837,16.349,5.443,44.414,14.355,58.301
	c-10.732,11.119-56.963,60.04-60.675,81.387c-3.963,22.789,44.57,49.056,56.578,55.176c-1.271,7.523-3.681,30.91,12.827,42.249
	c2.477,8.262,4.066,18.683,5.604,28.775c1.235,8.103,2.402,15.756,3.961,21.806c1.21,4.695,0.596,9.813-1.728,14.41
	c-11.429,22.61-9.887,51.755-8.762,73.035c0.191,3.619,0.372,7.038,0.477,10.163c0.204,6.085,0.195,10.839,0.151,13.756
	c-0.067,4.416,2.448,8.521,6.406,10.455c12.305,6.014,22.538,7.99,30.677,7.99c8.533-0.001,14.763-2.174,18.656-4.146
	c2.263-1.147,3.729-3.433,3.826-5.967c0.097-2.533-1.136-4.829-3.298-6.141c-4.524-2.743-9.131-5.032-13.587-7.246
	c-13.116-6.517-20.418-10.559-17.986-17.854c3.6-10.8,9.711-34.721,13.034-48.018c1.19-4.762,2.715-9.545,4.533-14.216
	c6.618-17.011,20.978-59.844,14.026-95.904c18.979-8.018,53.096-23.629,67.3-30.16c5.085-2.338,10.471-3.699,16.011-4.046
	c16.308-1.021,56.653-4.978,81.195-19.67c5.001-0.405,11.323-1.12,18.808-2.13c4.038-0.544,7.614-2.825,9.81-6.26
	C383.546,180.934,384.119,176.724,382.918,172.822z M272.808,177.634c-10.984,1.445-21.36,2.81-27.226,3.201
	c-12.212,0.812-43.115-0.411-53.327-0.855l3.317-21.561c3.515-3.051,14.252-14.135,8.864-31.778
	c20.856,3.031,52.403,3.18,56.052,3.187c3.675,0.712,36.168,6.733,58.993,1.355c3.215-0.756,6.654-0.76,9.946-0.01
	c11.999,2.735,23.413,5.513,28.106,6.665c0.035,10.293-0.759,20.592-3.247,24.325c-4.718,7.076-16.326,10.664-34.504,10.664
	C309.342,172.829,289.933,175.382,272.808,177.634z M185.816,182.373c-0.007,0.042-0.001,0.085-0.006,0.127
	c-0.005,0.046-0.019,0.088-0.022,0.134l-2.483,38.075c-0.383,5.879-3.861,11.069-9.075,13.545
	c-7.773,3.693-22.62,7.454-49.478,4.806c-0.762-8.601,0.845-16.075,0.943-16.513c0.175-0.655,1.882-7.131,3.606-16.88
	c0.003-0.016,0.005-0.031,0.008-0.046c5.174-29.21,4.118-49.187,1.163-62.533c2.543-0.368,6.614-1.158,10.864-2.805
	c9.527-3.691,15.313-9.893,16.732-17.933c3.089-17.507-6.509-28.034-19.297-38.262l4.082-2.296
	c6.513,9.389,29.034,40.053,45.361,40.053c0.249,0,0.499-0.008,0.745-0.022c1.361-0.076,2.499-1.078,2.766-2.414
	c2.157-10.796-1.344-21.389-3.954-27.315c1.374,0.139,2.76,0.34,4.15,0.576l4.594,28.725c0.073,0.453,0.17,0.901,0.292,1.343
	c0.225,0.814,0.585,2.102,0.679,2.323c7.852,18.655-5.71,28.793-6.419,29.306l-5.824,3.883c-1.309,0.873-1.852,2.612-1.104,3.996
	c0.554,1.025,1.589,1.582,2.647,1.582c0.572,0,1.15-0.163,1.661-0.504l0.335-0.224L185.816,182.373z M122.758,137.564
	c6.228,18.771,4.214,43.911,1.664,60.788c-7.918-9.009-20.123-22.599-27.203-29.018c3.435-3.736,8.85-10.597,16.038-19.787
	C116.682,145.172,120.182,140.698,122.758,137.564z M237.193,107.77c5.002,1.001,13.78,1.003,26.086,0.002
	c6.488-0.525,12.973-0.036,19.28,1.46l37.744,8.956c7.639,1.814,15.712,0.876,22.734-2.633l5.96-2.98l7.875,9.449
	c0.235,2.865,0.429,6.158,0.544,9.609c-5.383-1.315-15.78-3.829-26.657-6.309c-4.178-0.951-8.553-0.945-12.654,0.02
	c-22.428,5.283-56.395-1.39-56.736-1.457c-0.193-0.039-0.391-0.059-0.588-0.059c-0.384,0-37.419-0.043-58.374-3.578l-4.199-26.253
	c8.837,2.229,17.528,5.769,24.578,8.643C228.836,105.107,233.614,107.054,237.193,107.77z M143.416,18.265
	c5.999-10.998,16.425-12.385,22.125-12.257c10.189,0.258,20.08,5.625,23.517,12.762c11.956,24.826,8.51,35.238,5.47,44.425
	l-0.393,1.192c-1.266,3.874-4.857,6.621-8.935,6.836l-11.576,0.609c-1.279,0.067-2.375,0.94-2.727,2.172l-2,7
	c-0.332,1.163,0.066,2.411,1.011,3.167c0.205,0.163,4.869,3.872,10.696,6.91c1.507,2.804,6.765,13.519,5.629,24.55
	c-5.901-1.236-14.298-7.804-24.034-18.865c-7.211-8.193-13.146-16.572-15.173-19.507c0.814-3.291,2.756-11.925,2.756-19.431
	c0-0.727-0.264-1.429-0.742-1.976C142.709,48.618,137.441,29.217,143.416,18.265z M134.847,32.408
	c0.496,10.275,4.418,20.733,8.92,26.481c-0.173,6.573-1.869,14.086-2.575,16.954l-8.068,4.538
	c-1.274-12.094-2.962-29.75-2.962-38.436C130.163,35.698,132.516,33.279,134.847,32.408z M114.288,31.72
	c2.025-3.367,5.501-5.377,9.297-5.377c0.73,0,1.467,0.077,2.191,0.227c1.579,0.328,3.117,0.864,4.508,1.461
	c-3.163,2.033-6.121,6.04-6.121,13.914c0,9.189,1.758,27.458,3.052,39.657C118.017,66.747,107.049,43.75,114.288,31.72z
	 M68.737,169.342c3.286-18.895,46.322-64.916,58.177-77.297c1.215,1.75,2.03,2.847,2.224,3.106c0.58,0.773,1.477,1.2,2.401,1.2
	c0.015,0,0.029,0,0.044,0c1.645-0.014,2.975-1.352,2.975-3c0-0.238-0.028-0.471-0.081-0.693c-0.08-0.687-0.274-2.374-0.537-4.74
	c14.32,11.332,20.65,19.616,18.22,33.389c-2.159,12.232-18.198,15.273-23.217,15.928c-0.554-1.816-1.139-3.468-1.738-4.973
	c2.719-3.515,5.855-6.701,7.059-7.105c1.586-0.078,2.849-1.39,2.849-2.996c0-1.657-1.343-3-3-3c-3.974,0-9.038,5.793-12.634,10.732
	c-2.366,2.431-7.276,8.706-12.948,15.958c-6.71,8.578-15.062,19.254-17.625,21.305c-0.72,0.576-1.135,1.45-1.126,2.371
	c0.009,0.922,0.44,1.788,1.171,2.35c5.512,4.239,20.061,20.201,32.192,34.127c-0.886,4.85-1.754,8.803-2.372,11.443
	C102.668,208.03,65.958,185.326,68.737,169.342z M150.936,402.881c-4.2,12.599,8.045,18.683,21.009,25.123
	c4.344,2.159,8.836,4.391,13.145,7.004c0.358,0.217,0.423,0.545,0.414,0.781c-0.007,0.174-0.073,0.605-0.542,0.844
	c-15.972,8.091-36.082-0.021-43.986-3.883c-1.879-0.919-3.074-2.871-3.042-4.975c0.065-4.339,0.013-9.065-0.153-14.047
	c-0.107-3.183-0.289-6.63-0.482-10.279c-0.658-12.432-1.457-27.636,0.36-42.394c5.074,3.348,13.979,8.507,22.248,9.739
	C156.847,382.628,153.318,395.734,150.936,402.881z M168.603,340.368c-1.909,4.905-3.511,9.931-4.762,14.937
	c-0.703,2.813-1.532,6.107-2.435,9.648c-8.556-0.965-18.934-7.789-22.747-10.485c1.353-7.389,3.484-14.54,6.764-21.029
	c2.981-5.898,3.757-12.509,2.184-18.613c-1.483-5.758-2.628-13.266-3.84-21.214c-1.637-10.733-3.329-21.831-6.124-30.685
	c-0.213-0.676-0.66-1.255-1.259-1.633c-6.098-3.852-9.19-9.917-10.658-16.117c5.807,0.527,11.09,0.765,15.874,0.765
	c17.673,0,28.671-3.163,35.204-6.267c0.647-0.307,1.267-0.654,1.873-1.02l3.232,7.107
	C189.537,280.656,175.156,323.524,168.603,340.368z M271.157,206.445c-6.28,0.394-12.384,1.936-18.143,4.583
	c-14.078,6.474-47.74,21.876-66.708,29.905l-2.823-6.207c3.365-3.667,5.471-8.451,5.809-13.627l2.292-35.14
	c9.885,0.435,41.545,1.717,54.398,0.863c6.058-0.403,16.526-1.78,27.609-3.238c2.277-0.3,4.596-0.604,6.928-0.908
	c0.868,4.533,2.122,14.402-1.058,23.13C276.283,206.093,273.467,206.3,271.157,206.445z M376.291,181.14
	c-1.245,1.946-3.27,3.239-5.558,3.548c-7.733,1.042-14.187,1.766-19.181,2.149c-0.474,0.036-0.933,0.185-1.338,0.434
	c-17.813,10.917-45.178,15.754-64.249,17.878c2.525-9.099,1.432-18.406,0.526-23.242c13.037-1.654,25.746-3.078,33.291-3.078
	c20.594,0,33.514-4.362,39.496-13.336c4.906-7.359,4.529-27.73,3.942-38.454l1.755,1.276c1.961,1.427,3.254,3.531,3.64,5.925
	l4.205,26.066c0.022,0.137,0.054,0.272,0.095,0.404l4.269,13.876C377.865,176.8,377.54,179.189,376.291,181.14z"/>
<g>
</g>
<g>
</g>
<g>
</g>
<g>
</g>
<g>
</g>
<g>
</g>
<g>
</g>
<g>
</g>
<g>
</g>
<g>
</g>
<g>
</g>
<g>
</g>
<g>
</g>
<g>
</g>
<g>
</g>
</svg>
