<?xml version="1.0" encoding="iso-8859-1"?>
<!-- Generator: Adobe Illustrator 18.0.0, SVG Export Plug-In . SVG Version: 6.00 Build 0)  -->
<!DOCTYPE svg PUBLIC "-//W3C//DTD SVG 1.1//EN" "http://www.w3.org/Graphics/SVG/1.1/DTD/svg11.dtd">
<svg version="1.1" id="Capa_1" xmlns="http://www.w3.org/2000/svg" xmlns:xlink="http://www.w3.org/1999/xlink" x="0px" y="0px"
	 viewBox="0 0 409.83 409.83" style="enable-background:new 0 0 409.83 409.83;" xml:space="preserve">
<path d="M405.182,59.751c-3.187-1.244-6.646-0.193-8.609,2.608c-3.421,4.875-7.535,10.815-11.798,17.057l1.732-19.622
	c0.009-0.099,0.013-0.198,0.012-0.297c-0.039-3.421-2.306-6.241-5.641-7.017c-3.337-0.778-6.61,0.754-8.156,3.808
	c-9.146,18.083-24.424,49.379-29.026,61.477c-5.638,14.802-25.927,52.46-40.266,73.26c-0.437,0.635-0.947,1.209-1.512,1.733
	c-1.483,1.374-2.82,2.499-3.972,3.322c-3.063,2.188-10.074,7.109-21.883,15.359c-15.556-2.76-72.246-10.042-85.103-6.827
	c-4.734,1.183-16.404-0.176-31.215-3.636c-12.817-2.995-26.306-7.181-32.8-10.178c-11.237-5.188-28.631-1.61-35.367,0.098
	l-2.952-8.267l8.992-2.248c5.977-1.494,10.163-6.882,10.111-13.042c-0.122-14.294-1.145-33.209-5.327-42.095
	c-8.892-18.896-33.902-17.983-44.622-14.582c-16.38,5.197-26.608,18.153-27.94,35.05c-1.571-0.456-2.997-0.631-4.819-1.008
	c-8.375-1.749-16.691,1.944-21.194,9.409c-15.918,26.457,22.852,78.696,24.511,80.907c0.58,0.773,1.477,1.2,2.401,1.2
	c0.373,0,0.75-0.069,1.113-0.215c1.259-0.503,2.024-1.789,1.866-3.136c-0.054-0.455-5.349-45.675-5.349-62.749
	c0-4.866,1.116-8.388,3.316-10.53c3.194,8.141,9.665,14.959,15.183,20.749c3.347,3.511,6.508,6.828,8.247,9.726
	c4.578,7.63,2.567,21.738,1.894,25.634c-3.691,3.231-5.844,7.438-6.308,12.55c-2.186,24.045,37.199,54.764,53.785,62.02
	c14.6,6.388,39.819,39.433,41.694,41.908c1.465,2.521,15.513,25.374,42.878,25.373c0.573,0,1.153-0.011,1.738-0.031
	c2.177-0.078,4.502-0.592,6.938-1.461c2.449,0.4,4.928,0.61,7.422,0.61c2.342,0,4.697-0.177,7.05-0.529
	c12.279-1.85,28.78-17.69,49.044-47.082c14.859-21.551,27.978-44.984,33.854-56.749c0.735-0.016,1.468-0.047,2.207-0.094
	c3.908-0.254,7.657-1.651,10.839-4.044l1.964-1.476c4.178-3.123,5.888-8.377,4.573-13.233c0.244-0.165,0.443-0.298,0.54-0.362
	c2.182-1.193,27.123-15.196,39.12-38.19c4.136-7.927,7.841-16.494,11.425-24.779c5.719-13.222,12.201-28.208,16.862-29.762
	c3.215-1.068,6.909-2.26,10.399-3.353c6.361-1.988,10.493-8.026,10.048-14.683l-1.179-17.694c-0.127-1.9,0.031-3.808,0.467-5.661
	l7.339-31.178c0.022-0.097,0.041-0.194,0.054-0.293C410.212,64.11,408.372,60.993,405.182,59.751z M349.303,119.898
	c4.52-11.882,19.684-42.932,28.772-60.901c0.397-0.787,1.074-0.761,1.442-0.673c0.354,0.082,0.937,0.338,0.997,1.127l-2.665,30.189
	c-7.901,11.763-15.313,23.176-18.783,29.424c-5.329,9.592-18.762,28.412-32.115,45.234
	C336.787,146.978,345.746,129.237,349.303,119.898z M124.43,196.246c12.353,5.702,54.536,17.553,67.985,14.186
	c7.887-1.97,39.224,0.927,62.512,3.931c-21.617,0.497-51.785,1.158-59.238,1.158c-0.127,0-0.244,0.003-0.369,0.004
	c-0.014,0-0.027-0.004-0.041-0.004h-0.01c-0.018,0-0.035,0.005-0.053,0.005c-7.642,0.056-11.398,1.447-15.022,2.795
	c-2.522,0.938-4.903,1.824-8.803,2.214c-0.183,0.019-0.512,0.04-1.045,0.04c-5.831,0-21.303-2.331-36.786-4.939
	c-2.347-3.383-10.056-11.637-33.094-20.476C107.836,193.912,117.736,193.157,124.43,196.246z M112.358,207.021
	c4.905,2.558,8.433,4.897,10.934,6.851c-5.644-0.989-10.982-1.951-15.508-2.778C109.894,209.769,111.369,208.277,112.358,207.021z
	 M22.369,170.122c0,11.983,2.445,36.61,4.044,51.431c-3.273-5.117-7.264-11.821-10.835-19.12
	c-6.92-14.142-13.683-33.468-6.611-45.222c2.648-4.39,7.151-6.929,11.975-6.929c0.944,0,1.901,0.098,2.857,0.297
	c1.948,0.404,3.995,1.094,6.095,2.028c0.031,0.253,0.066,0.505,0.104,0.755C26.475,155.523,22.369,160.177,22.369,170.122z
	 M60.259,186.978c-2.08-3.468-5.465-7.018-9.048-10.777c-7.276-7.636-15.524-16.289-15.524-26.679
	c0-16.002,8.938-28.391,23.907-33.141c8.725-2.768,30.247-3.736,37.378,11.418c2.858,6.074,4.592,20.497,4.755,39.571
	c0.03,3.406-2.259,6.363-5.565,7.19l-12.203,3.051c-0.822,0.205-1.518,0.748-1.917,1.494c-0.399,0.747-0.465,1.628-0.18,2.425
	c0,0,5.028,14.043,5.039,14.065c0.313,0.811,0.962,1.485,1.852,1.776c7.198,2.358,13.134,4.703,18.039,6.938
	c-1.943,1.939-5.799,4.353-12.921,4.21c-0.873-0.104-4.383-0.488-9.057-0.488c-8.603,0-15.714,1.23-21.187,3.59
	C64.328,204.839,64.537,194.108,60.259,186.978z M190.582,351.523c-22.362,0.839-35.385-16.516-38.524-21.272
	c2.903-6.695,16.785-36.517,40.354-53.274c0.231-0.161,23.467-16.307,48.592-33.79c10.337-0.487,22.935-1.11,29.031-1.533
	c3.301,5.14,8.687,8.5,15.811,9.909c-1.417,1.831-2.667,3.642-3.73,5.414C272.622,272.801,216.464,350.598,190.582,351.523z
	 M190.523,270.983c-4.804-2.778-19.23-11.612-25.636-20.979c12.964-2.15,22.526-4.146,24.18-4.497
	c2.398-0.102,21.41-0.912,40.677-1.796C211.446,256.441,195.436,267.569,190.523,270.983z M256.31,305.651
	c-18.743,27.184-34.724,43.007-44.997,44.554c-0.984,0.147-1.968,0.253-2.951,0.331c20.033-13.177,44.18-42.329,60.579-64.26
	C264.967,292.69,260.701,299.283,256.31,305.651z M306.517,241.893l-1.97,1.479c-2.247,1.689-4.883,2.676-7.625,2.854
	c-1.684,0.11-3.314,0.132-5.076,0.039h-0.001c0,0,0,0-0.001,0c-8.73-0.453-14.613-3.52-17.487-9.114
	c-0.556-1.083-1.705-1.724-2.92-1.619c-3.927,0.33-14.847,0.919-31.579,1.702h0h-0.001c-23.412,1.107-51.02,2.278-51.295,2.29
	c-0.17,0.007-0.339,0.028-0.505,0.064c-0.12,0.025-12.14,2.605-28.359,5.18c-21.74,3.455-61.063,8.419-80.173,2.872
	c-1.59-0.462-3.255,0.453-3.717,2.044c-0.462,1.592,0.453,3.256,2.044,3.718c6.758,1.962,15.643,2.743,25.503,2.743
	c17.447,0,37.941-2.445,55.13-5.115c5.761,10.24,19.831,19.626,26.787,23.827c-20.149,15.977-32.638,39.754-37.303,49.822
	c-7.673-9.76-27.667-34.038-41.078-39.906c-15.789-6.908-52.035-35.965-50.215-55.98c0.501-5.513,4.823-14.76,28.138-14.76
	c4.482,0,7.858,0.387,8.407,0.453c3.712,0.709,63.535,12.09,77.124,12.09c0.635,0,1.172-0.023,1.642-0.069
	c4.671-0.468,7.532-1.532,10.299-2.562c3.35-1.246,6.514-2.424,13.403-2.424c10.176,0,62.138-1.218,77.822-1.591l12.191-0.29
	l0.296-0.004c2.553,0,4.994,0.785,7.068,2.277l13.344,9.522c0.844,0.6,1.512,1.366,1.984,2.275
	C309.861,236.543,309.073,239.982,306.517,241.893z M312.265,227.881c-0.069,0.037-0.138,0.078-0.204,0.121
	c-0.013,0.008-0.125,0.081-0.307,0.202c-0.569-0.608-1.184-1.172-1.863-1.655l-13.331-9.513c-3.092-2.224-6.745-3.399-10.562-3.399
	c-0.147,0-0.295,0.002-0.439,0.006l-2.251,0.053c9.546-6.674,15.392-10.781,18.125-12.733c1.557-1.112,3.406-2.709,5.477-4.693
	c0.197-0.151,0.379-0.321,0.535-0.518c0.001-0.001,0.001-0.002,0.002-0.003c6.073-5.904,13.94-14.961,21.955-24.912
	c6.288,1.88,18.481,6.849,23.04,14.417c-1.112,2.337-2.245,4.641-3.413,6.879C337.611,214.016,312.517,227.745,312.265,227.881z
	 M396.529,97.601c-0.573,2.437-0.779,4.938-0.613,7.433l1.179,17.697c0.259,3.88-2.147,7.398-5.854,8.558
	c-3.523,1.104-7.252,2.307-10.501,3.387c-6.86,2.286-12.249,14.057-20.474,33.072c-1.616,3.737-3.261,7.531-4.951,11.288
	c-6.034-7.036-16.152-11.251-21.925-13.207c12.973-16.475,25.611-34.294,30.921-43.851c6.196-11.157,26.089-40.376,37.174-56.174
	c0.505-0.72,1.168-0.599,1.519-0.463c0.337,0.132,0.877,0.468,0.823,1.263L396.529,97.601z"/>
<g>
</g>
<g>
</g>
<g>
</g>
<g>
</g>
<g>
</g>
<g>
</g>
<g>
</g>
<g>
</g>
<g>
</g>
<g>
</g>
<g>
</g>
<g>
</g>
<g>
</g>
<g>
</g>
<g>
</g>
</svg>
